<?xml version="1.0" encoding="utf-8"?>
<!-- Generator: Adobe Illustrator 26.4.1, SVG Export Plug-In . SVG Version: 6.00 Build 0)  -->
<svg version="1.1" id="Слой_1" xmlns="http://www.w3.org/2000/svg" xmlns:xlink="http://www.w3.org/1999/xlink" x="0px" y="0px"
	 viewBox="0 0 1440 343" style="enable-background:new 0 0 1440 343;" xml:space="preserve">
<style type="text/css">
	.st0{fill:#FFFFFF;}
</style>
<g>
	<rect width="1440" height="343"/>
	<g>
		<g>
			<path d="M194.11,343c0-114.56,0-228.7,0-343c344.31,0,688.62,0,1032.93,0c0,114.29,0,228.64,0,343
				C882.81,343,538.58,343,194.11,343z M450.45,232.11c104.07-38.07,203.41-86.94,304.07-132.79
				c-79.79,26.78-159.57,53.56-239.36,80.34c-0.25-0.7-0.49-1.4-0.74-2.1c30.46-12.49,60.91-24.98,91.37-37.47
				c-0.15-0.53-0.31-1.05-0.46-1.58c-65.23,0.82-130.45,1.65-195.68,2.47c0.01,0.73,0.02,1.46,0.03,2.19
				c50.14-0.9,100.28-1.81,150.43-2.71c0.13,0.6,0.26,1.2,0.39,1.79c-40.32,19.25-80.64,38.5-120.96,57.74
				c0.27,0.83,0.54,1.65,0.81,2.48c49.26-11.25,98.7-21.82,146.33-39.54c0.19,0.5,0.37,1,0.56,1.5
				C541.64,187,496.05,209.56,450.45,232.11z M613.01,181.24c18.86-12.3,38.26-21.56,62.75-21.36
				c-12.59,7.93-23.65,14.88-34.7,21.84c11.86-0.55,23.59,0.96,34.46-3.16c-0.06-0.6-0.12-1.2-0.19-1.79c-2.85,0-5.69,0-8.54,0
				c-0.11-0.37-0.22-0.74-0.32-1.11c19.72-12.32,39.45-24.64,59.17-36.96c-8.32-1.41-15.94-1.07-23.52-1.49
				c-9.6-0.53-18.34,1.59-27.17,5.42c-34.62,15-69.46,29.49-104.21,44.19c-1.31,0.55-2.54,1.29-3.8,1.94
				c21.71-0.98,43.12-3.01,64.51-5.24c2-0.21,3.86-1.71,5.78-2.61c-0.17-0.36-0.34-0.73-0.51-1.09
				C628.82,180.29,620.92,180.77,613.01,181.24z M751.04,154.01c9.62-5.32,19.31-10.68,28.99-16.03
				c-11.21-1.47-21.68-1.77-32.11-1.31c-3.66,0.16-7.73,1.42-10.78,3.44c-12.36,8.17-24.28,17.02-36.6,25.25
				c-9.17,6.13-18.72,11.7-28.1,17.52c2.13,0.16,3.89-0.48,5.53-1.35c13.31-6.99,26.49-14.22,39.95-20.91
				c4.14-2.05,9-2.64,13.53-3.9c0.31,0.81,0.63,1.62,0.94,2.43c-10.22,7.24-20.33,14.67-30.71,21.68
				c-10.65,7.19-21.46,14.16-32.4,20.9c-10.53,6.49-21.33,12.57-32,18.83c40.55-18.52,80.93-37.28,116.07-65.47
				C752.01,154.46,750.91,153.95,751.04,154.01z M865.56,135.14c-2.54,0-5.12,0.32-7.6-0.05c-16.92-2.57-30.49,2.71-41.06,16.37
				c-2.73,3.53-6.96,5.9-10.49,8.81c0.56,0.65,1.12,1.29,1.68,1.94c2.51-0.23,5.01-0.46,7.52-0.68c0.23,0.38,0.46,0.76,0.69,1.14
				c-14.93,12.41-29.85,24.81-44.78,37.22c0.31,0.37,0.61,0.73,0.92,1.1c24.07-15.93,48.15-31.85,72.22-47.78
				c-0.16-0.47-0.33-0.94-0.49-1.4c-6.57,0.9-13.13,1.8-19.7,2.7c-0.45-0.79-0.9-1.59-1.35-2.38c3.37-3.01,7.35-5.56,10-9.11
				c5.86-7.88,14.37-6.96,21.4-5.12C859.61,139.21,862.15,137.6,865.56,135.14z M864.47,153.73c-0.24-0.48-0.47-0.96-0.71-1.44
				c3.27-3.36,6.95-6.43,9.74-10.16c5.72-7.66,14.13-6.2,20.92-4.69c4.54,1.01,6.56-0.24,9.47-2.08c-8.5-0.5-16.95-0.55-25.4-0.46
				c-1.69,0.02-3.92-0.06-4.98,0.91c-8.89,8.12-17.56,16.48-27.61,26.01c4.7-0.52,7.34-0.81,9.99-1.1c0.22,0.43,0.45,0.85,0.67,1.28
				c-14.09,11.77-28.17,23.55-42.26,35.32c0.36,0.42,0.71,0.84,1.07,1.26c23.12-15.45,46.24-30.9,69.35-46.34
				c-0.23-0.4-0.45-0.8-0.68-1.19C877.52,151.93,871,152.83,864.47,153.73z M867.29,194.36c0.26,0.38,0.53,0.75,0.79,1.13
				c22.7-14.86,45.41-29.73,68.11-44.59c-0.23-0.42-0.46-0.83-0.68-1.25c-6.11,0.82-12.21,1.63-18.32,2.45
				c2.29-4.41,5.62-7.21,8.14-10.6c5.65-7.58,13.52-5.34,20.94-5.36c2.97-0.01,5.94,0,8.91,0c-0.08-0.67-0.16-1.34-0.24-2.02
				c-7.59,0-15.18-0.1-22.77,0.06c-2.33,0.05-5.34,0-6.86,1.34c-8.45,7.41-16.55,15.23-26.03,24.1c4.33-0.46,6.8-0.72,9.28-0.99
				c0.25,0.43,0.5,0.86,0.76,1.29C895.3,171.4,881.29,182.88,867.29,194.36z M755.92,169.94c-0.19-0.43-0.39-0.87-0.58-1.3
				c1.5-1.4,2.95-2.87,4.52-4.19c6.51-5.45,13.49-10.43,19.5-16.39c8.4-8.34,17.73-12.93,29.73-10.92c0.83,0.14,1.75-0.24,2.63-0.37
				c-5.92-0.66-11.81-1.12-17.58-0.51c-4.11,0.44-8.61,1.48-12,3.69c-15.5,10.1-30.68,20.7-45.96,31.16
				c-1.22,0.84-2.28,1.93-4.83,4.12c17.42-1.96,32.87-3.69,48.32-5.42c-0.05-0.5-0.1-1-0.15-1.5
				C771.65,168.85,763.78,169.4,755.92,169.94z M752.19,199.97c28.09-17.28,51.58-40.36,75.26-63.79c-3.6-0.09-7.68-0.12-9.85,1.9
				C795.61,158.52,773.94,179.3,752.19,199.97z M921.24,136.79c-0.72-1.13-1.43-2.27-2.15-3.4c-3.55,1.81-7.75,2.94-10.56,5.55
				c-19.46,18.15-38.62,36.61-57.87,54.99c-1.09,1.04-2.02,2.24-3.02,3.36c0.57,0.58,1.15,1.16,1.72,1.73
				C873.32,178.28,897.28,157.54,921.24,136.79z M929.04,181.76c0.12,0.16,0.24,0.31,0.36,0.47c1.18-0.83,2.47-1.54,3.53-2.51
				c13.18-11.99,26.46-23.89,39.43-36.11c5.19-4.89,9.56-10.76,18.08-9.36c-17.77-2.49-27.08-1.22-32.42,4.28
				c3.79-0.41,7.24-0.79,10.68-1.16c0.27,0.58,0.54,1.16,0.8,1.74C956.03,153.33,942.53,167.54,929.04,181.76z"/>
			<path class="st0" d="M450.45,232.11c45.59-22.56,91.18-45.11,136.78-67.67c-0.19-0.5-0.37-1-0.56-1.5
				c-47.63,17.72-97.07,28.3-146.33,39.54c-0.27-0.83-0.54-1.65-0.81-2.48c40.32-19.25,80.64-38.5,120.96-57.74
				c-0.13-0.6-0.26-1.2-0.39-1.79c-50.14,0.9-100.28,1.81-150.43,2.71c-0.01-0.73-0.02-1.46-0.03-2.19
				c65.23-0.82,130.45-1.65,195.68-2.47c0.15,0.53,0.31,1.05,0.46,1.58c-30.46,12.49-60.91,24.98-91.37,37.47
				c0.25,0.7,0.49,1.4,0.74,2.1c79.79-26.78,159.57-53.56,239.36-80.34C653.86,145.18,554.52,194.05,450.45,232.11z"/>
			<path class="st0" d="M613.01,181.24c7.9-0.47,15.81-0.95,23.71-1.42c0.17,0.36,0.34,0.73,0.51,1.09c-1.92,0.9-3.79,2.4-5.78,2.61
				c-21.39,2.23-42.8,4.26-64.51,5.24c1.27-0.65,2.49-1.39,3.8-1.94c34.75-14.7,69.59-29.19,104.21-44.19
				c8.83-3.83,17.57-5.95,27.17-5.42c7.58,0.42,15.2,0.08,23.52,1.49c-19.72,12.32-39.45,24.64-59.17,36.96
				c0.11,0.37,0.22,0.74,0.32,1.11c2.85,0,5.69,0,8.54,0c0.06,0.6,0.12,1.2,0.19,1.79c-10.87,4.12-22.6,2.61-34.46,3.16
				c11.05-6.96,22.11-13.91,34.7-21.84C651.27,159.69,631.87,168.94,613.01,181.24z M710.31,139.67
				c-15.65-3.88-25.38,5.59-36.52,10.79C687.78,154.35,698.39,147.36,710.31,139.67z"/>
			<path class="st0" d="M751.04,154.01c-0.13-0.06,0.96,0.45,2.31,1.07c-35.14,28.19-75.53,46.95-116.07,65.47
				c10.68-6.26,21.47-12.33,32-18.83c10.94-6.74,21.75-13.71,32.4-20.9c10.38-7.01,20.48-14.44,30.71-21.68
				c-0.31-0.81-0.63-1.62-0.94-2.43c-4.53,1.26-9.39,1.85-13.53,3.9c-13.46,6.69-26.64,13.92-39.95,20.91
				c-1.64,0.86-3.4,1.5-5.53,1.35c9.38-5.82,18.92-11.39,28.1-17.52c12.32-8.23,24.24-17.08,36.6-25.25
				c3.05-2.02,7.12-3.28,10.78-3.44c10.43-0.45,20.9-0.16,32.11,1.31C770.35,143.34,760.66,148.69,751.04,154.01z M735.72,150.25
				c11.96,2.96,18.88-5.02,28.2-11.34C750.47,135.9,744,145.16,735.72,150.25z"/>
			<path class="st0" d="M865.56,135.14c-3.42,2.46-5.95,4.07-11.03,2.74c-7.03-1.84-15.54-2.76-21.4,5.12
				c-2.64,3.55-6.62,6.1-10,9.11c0.45,0.79,0.9,1.59,1.35,2.38c6.57-0.9,13.13-1.8,19.7-2.7c0.16,0.47,0.33,0.94,0.49,1.4
				c-24.07,15.93-48.15,31.85-72.22,47.78c-0.31-0.37-0.61-0.73-0.92-1.1c14.93-12.41,29.85-24.81,44.78-37.22
				c-0.23-0.38-0.46-0.76-0.69-1.14c-2.51,0.23-5.01,0.46-7.52,0.68c-0.56-0.65-1.12-1.29-1.68-1.94c3.54-2.9,7.76-5.28,10.49-8.81
				c10.57-13.65,24.14-18.93,41.06-16.37C860.44,135.47,863.03,135.14,865.56,135.14z"/>
			<path class="st0" d="M864.47,153.73c6.52-0.9,13.05-1.79,19.57-2.69c0.23,0.4,0.45,0.8,0.68,1.19
				c-23.12,15.45-46.24,30.9-69.35,46.34c-0.36-0.42-0.71-0.84-1.07-1.26c14.09-11.77,28.17-23.55,42.26-35.32
				c-0.22-0.43-0.45-0.85-0.67-1.28c-2.64,0.29-5.29,0.58-9.99,1.1c10.05-9.53,18.73-17.88,27.61-26.01
				c1.06-0.97,3.29-0.9,4.98-0.91c8.45-0.09,16.9-0.04,25.4,0.46c-2.91,1.84-4.93,3.09-9.47,2.08c-6.8-1.51-15.2-2.97-20.92,4.69
				c-2.79,3.73-6.46,6.79-9.74,10.16C864,152.77,864.24,153.25,864.47,153.73z"/>
			<path class="st0" d="M867.29,194.36c14.01-11.48,28.01-22.96,42.02-34.44c-0.25-0.43-0.5-0.86-0.76-1.29
				c-2.48,0.26-4.95,0.53-9.28,0.99c9.49-8.87,17.58-16.69,26.03-24.1c1.53-1.34,4.53-1.29,6.86-1.34
				c7.59-0.16,15.18-0.06,22.77-0.06c0.08,0.67,0.16,1.34,0.24,2.02c-2.97,0-5.94-0.01-8.91,0c-7.42,0.02-15.29-2.22-20.94,5.36
				c-2.53,3.39-5.85,6.19-8.14,10.6c6.11-0.82,12.21-1.63,18.32-2.45c0.23,0.42,0.46,0.83,0.68,1.25
				c-22.7,14.86-45.41,29.73-68.11,44.59C867.81,195.12,867.55,194.74,867.29,194.36z"/>
			<path class="st0" d="M755.92,169.94c7.86-0.55,15.73-1.09,23.59-1.64c0.05,0.5,0.1,1,0.15,1.5c-15.45,1.73-30.89,3.47-48.32,5.42
				c2.55-2.19,3.6-3.28,4.83-4.12c15.27-10.45,30.45-21.05,45.96-31.16c3.39-2.21,7.89-3.25,12-3.69
				c5.77-0.61,11.66-0.15,17.58,0.51c-0.88,0.14-1.8,0.51-2.63,0.37c-12-2.01-21.33,2.58-29.73,10.92
				c-6,5.96-12.98,10.93-19.5,16.39c-1.57,1.32-3.02,2.79-4.52,4.19C755.53,169.08,755.72,169.51,755.92,169.94z"/>
			<path class="st0" d="M752.19,199.97c21.76-20.68,43.42-41.45,65.4-61.89c2.17-2.02,6.26-1.99,9.85-1.9
				C803.77,159.61,780.28,182.69,752.19,199.97z"/>
			<path class="st0" d="M921.24,136.79c-23.96,20.75-47.92,41.49-71.87,62.24c-0.57-0.58-1.15-1.16-1.72-1.73
				c1-1.12,1.93-2.32,3.02-3.36c19.24-18.38,38.41-36.84,57.87-54.99c2.8-2.62,7-3.74,10.56-5.55
				C919.8,134.53,920.52,135.66,921.24,136.79z"/>
			<path class="st0" d="M929.04,181.76c13.49-14.22,26.99-28.43,40.48-42.65c-0.27-0.58-0.54-1.16-0.8-1.74
				c-3.44,0.37-6.89,0.75-10.68,1.16c5.34-5.49,14.64-6.77,32.42-4.28c-8.52-1.4-12.89,4.47-18.08,9.36
				c-12.97,12.22-26.25,24.12-39.43,36.11c-1.06,0.97-2.35,1.68-3.53,2.51C929.28,182.07,929.16,181.91,929.04,181.76z"/>
			<path d="M710.31,139.67c-11.91,7.69-22.53,14.69-36.52,10.79C684.92,145.26,694.65,135.79,710.31,139.67z"/>
			<path d="M735.72,150.25c8.28-5.09,14.75-14.35,28.2-11.34C754.6,145.23,747.68,153.21,735.72,150.25z"/>
		</g>
	</g>
</g>
</svg>
