<?xml version="1.0" encoding="utf-8"?>
<svg version="1.1" id="Слой_1" xmlns="http://www.w3.org/2000/svg" xmlns:xlink="http://www.w3.org/1999/xlink" x="0px" y="0px"
	 viewBox="0 0 144 144" style="enable-background:new 0 0 144 144;" xml:space="preserve">
<style type="text/css">
	.st0{fill:#F9F9F9;}
	.st1{fill:#EA0808;}
	.st2{fill:#F7F7F7;}
	.st3{fill:#FAFAFA;}
	.st4{fill:#F8F8F8;}
	.st5{fill:#F8F5F4;}
	.st6{fill:#F0EBEB;}
	.st7{fill:#060001;}
	.st8{fill:#060101;}
	.st9{fill:#FAF8F8;}
	.st10{fill:#0F0202;}
	.st11{fill:#0C0303;}
	.st12{fill:#0E0303;}
	.st13{fill:#0F0E0E;}
	.st14{fill:#0E0202;}
	.st15{fill:#F9F6F6;}
	.st16{fill:#F9E8E8;}
	.st17{fill:#F4DADA;}
	.st18{fill:#0B0B0B;}
</style>
<g>
	<g>
		<path class="st0" d="M104.79,74.97c-1.21,1.34-2.52,2.6-3.6,4.04c-0.48,0.63-0.53,1.6-0.77,2.41c-0.02,0.08,0.03,0.18,0.02,0.26
			c-0.12,1.17-0.35,2.17-1.81,2.45c-0.77,0.15-1.49,0.68-2.18,1.12c-1.6,1.02-1.97,2.58-1.78,4.34c0.07,0.69,0.22,1.38,0.32,1.97
			c-1.25,0.24-2.53,0.33-3.7,0.73c-1.76,0.6-3.08,1.92-3.97,3.5c-0.48,0.86-0.56,1.97-0.69,2.98c-0.15,1.1-0.15,2.22-0.22,3.48
			c-0.96-0.62-1.88-1.12-2.69-1.77c-1.23-0.99-2.49-1.64-4.16-1.48c-1.52,0.15-2.98,0.35-4.28,1.21c-0.56,0.37-1.18,0.64-1.8,0.97
			c-0.46-0.57-0.91-1.18-1.41-1.74c-0.88-1.01-1.98-1.48-3.35-1.49c-1.71-0.02-3.33,0.2-4.9,0.88c-0.21,0.09-0.67,0.07-0.75-0.06
			c-1.33-2.07-3.46-2.4-5.61-2.47c-1.89-0.06-3.8,0.12-5.7,0.21c-0.51,0.02-1.02,0.06-1.53,0.09c-0.04-0.1-0.09-0.2-0.13-0.31
			c0.32-0.25,0.6-0.57,0.96-0.73c1.65-0.73,3.3-1.46,4.98-2.11c3.55-1.38,6.95-3.06,10.19-5.06c0.7-0.43,1.25-0.48,1.88,0.05
			c2.17,1.82,4.85,2.66,7.37,3.78c0.48,0.22,1.1,0.15,1.66,0.21c0.55-1.29,0.38-2.5-0.18-3.86c0.52,0.15,0.96,0.25,1.37,0.4
			c0.46,0.17,0.81,0.11,1.05-0.33c0.61-1.08,1.2-1.04,2.42-1.09c0.12-0.5,0.24-1.03,0.41-1.78c0.83,1.47,1.73,2.64,3.27,3.17
			c1.06-1.61,2.2-3.18,3.14-4.86c0.68-1.22,1.08-2.6,1.62-3.9c0.43-1.04,0.86-2.08,1.34-3.09c0.1-0.2,0.46-0.35,0.71-0.39
			c1.63-0.24,3.28-0.4,4.9-0.67c0.98-0.16,1.95-0.46,2.91-0.74c1.14-0.33,2.26-0.7,3.39-1.05C103.92,74.5,104.36,74.73,104.79,74.97
			z"/>
		<path class="st1" d="M104.79,74.97c-0.43-0.24-0.87-0.47-1.3-0.71c-0.44-0.36-0.88-0.73-1.33-1.09c-0.14-0.18-0.29-0.35-0.43-0.53
			c-1.15-1.48-2.36-2.93-3.44-4.46c-0.56-0.8-0.9-1.77-1.34-2.66c-0.25-1.41-0.48-2.82-0.79-4.21c-0.04-0.18-0.44-0.28-0.67-0.42
			c-1.67,0-3.34-0.01-5.01-0.01c-2.08-0.01-4.16-0.03-6.25-0.04c-0.27,0-0.56,0.04-0.79-0.07c-0.24-0.11-0.57-0.37-0.56-0.56
			c0.01-0.26,0.23-0.6,0.47-0.76c0.22-0.14,0.57-0.12,0.86-0.12c3.69-0.01,7.38-0.02,11.07,0.01c0.66,0,0.87-0.15,0.97-0.86
			c0.92-6.83,4.52-11.67,10.97-14.22c1.41-0.56,2.97-0.78,4.48-1.05c0.64-0.12,0.84-0.34,0.83-0.97c-0.02-3.63-0.01-7.26-0.01-10.89
			c0-0.3-0.05-0.64,0.07-0.88c0.13-0.25,0.47-0.58,0.67-0.55c0.27,0.04,0.57,0.35,0.73,0.61c0.12,0.2,0.04,0.52,0.04,0.79
			c0,3.63,0.02,7.26-0.02,10.89c-0.01,0.69,0.23,0.91,0.89,0.98c7.36,0.86,12.22,4.89,14.74,11.79c0.4,1.1,0.58,2.31,0.71,3.48
			c0.08,0.7,0.31,0.88,0.98,0.88c3.57-0.03,7.14-0.01,10.71-0.01c0.21,0,0.42,0,0.62,0c0.52,0.01,0.98,0.14,0.99,0.76
			c0.01,0.68-0.53,0.69-1.01,0.73c-0.24,0.02-0.48,0.01-0.71,0.01c-3.54,0-7.08,0.01-10.62-0.01c-0.61,0-0.86,0.12-0.95,0.81
			c-0.85,6.7-4.33,11.51-10.55,14.18c-1.77,0.76-3.74,1.06-5.77,1.62c0,0.08-0.03,0.4-0.03,0.71c0,3.57,0,7.14,0,10.71
			c0,0.27,0.08,0.58-0.04,0.79c-0.15,0.27-0.45,0.62-0.7,0.64c-0.23,0.01-0.57-0.33-0.71-0.59c-0.13-0.24-0.07-0.58-0.07-0.88
			c0-3.51-0.03-7.02,0.01-10.53c0.01-0.84-0.16-1.15-1.08-1.24c-2.17-0.2-4.24-0.84-6.17-1.88
			C105.13,75.08,104.95,75.03,104.79,74.97z M112.54,69.73c-0.01-2.19-0.01-4.39-0.02-6.58c0-0.75,0-1.51,0-2.26
			c-1.42,0-2.76,0-4.11,0c-0.32-0.04-0.64-0.12-0.95-0.12c-2.44-0.01-4.87-0.01-7.31-0.01c-2.62,0-2.62,0-2.16,2.56
			c0.02,0.09,0.06,0.16,0.1,0.25c0.38,2.32,1.46,4.31,2.87,6.13c1.11,1.43,2.36,2.74,4.07,3.5c0.23,0.18,0.43,0.39,0.68,0.53
			c1.7,0.96,3.53,1.49,5.45,1.81c1.42,0.23,1.42,0.27,1.41-1.11c0-0.45-0.03-0.89-0.04-1.34C112.53,71.97,112.53,70.85,112.54,69.73
			z M124.76,70.56c0.32-0.4,0.64-0.8,0.97-1.21c1.68-1.78,2.48-3.96,2.9-6.31c0.09-0.52,0.18-1.05,0.29-1.57
			c0.11-0.53-0.16-0.71-0.63-0.71c-4.54,0-9.08-0.01-13.62,0.03c-0.21,0-0.61,0.39-0.61,0.6c-0.03,1.81,0.01,3.62,0.03,5.42
			c0,2.09,0,4.18,0,6.27c0,0.84,0,1.69,0,2.74c1.58-0.37,3.04-0.61,4.43-1.07c1.07-0.36,2.03-1.01,3.04-1.53
			C122.62,72.33,123.69,71.44,124.76,70.56z M114.08,53.85c-0.02,1.71-0.05,3.42-0.06,5.12c-0.01,0.56,0.32,0.44,0.65,0.31
			c4.55,0.02,9.1,0.03,13.65,0.06c0.48,0,0.65-0.23,0.57-0.67c-0.21-1.11-0.3-2.26-0.67-3.31c-1.82-5.23-5.41-8.68-10.73-10.24
			c-1.08-0.32-2.23-0.4-3.4-0.59C114.08,47.79,114.08,50.82,114.08,53.85z M109.31,59.28c1.07,0.05,2.14,0.11,3.21,0.16
			c0-1.98,0-3.78,0-5.58c0.02-2.88,0.04-5.77,0.03-8.65c0-0.19-0.33-0.49-0.56-0.56c-0.3-0.08-0.65-0.02-0.97,0.04
			c-5.35,0.94-9.31,3.8-11.8,8.63c-0.94,1.83-1.38,3.81-1.54,5.86c0.15,0.07,0.23,0.13,0.31,0.13
			C101.76,59.3,105.54,59.29,109.31,59.28z"/>
		<path class="st0" d="M81.04,59.21c-2.04-0.44-3.92-0.14-5.62,1.02c-0.46,0.31-1.1,0.6-1.28,1.05c-0.68,1.71-2.38,1.47-3.63,2.06
			c-0.11,0.05-0.36-0.05-0.46-0.16c-1.03-1.04-2.35-0.96-3.64-0.92c-1,0.04-2,0.21-3,0.31c-0.55,0.05-0.88-0.15-1.17-0.7
			c-0.28-0.52-0.84-1.04-1.39-1.25c-1.64-0.62-3.34-0.62-5.07-0.06c-0.98-2.46-3.25-2.51-5.3-2.89c-0.95-0.18-1.94-0.1-2.92-0.17
			c-0.32-0.02-0.62-0.13-0.99-0.38c0.24-0.12,0.46-0.3,0.71-0.35c2.7-0.59,5.42-1.1,8.11-1.75c1.61-0.39,3.18-0.95,4.75-1.5
			c0.53-0.19,0.87-0.15,1.23,0.29c1.29,1.58,3.15,2.38,4.8,3.46c0.93,0.6,1.64,0.2,1.83-0.9c0.07-0.4,0.01-0.81,0.01-1.38
			c0.5,0.2,0.93,0.38,1.37,0.56c-0.02-0.07-0.04-0.13-0.05-0.2c0.74-0.18,1.5-0.3,2.21-0.57c0.39-0.15,0.68-0.55,1.03-0.84
			c0.5,0.73,1.05,1.52,1.78,2.57c1.74-1.8,3.33-3.41,4.89-5.06c0.81-0.86,1.55-1.79,2.36-2.65c0.15-0.16,0.47-0.25,0.7-0.24
			c2.73,0.19,5.44,0.03,8.14-0.37c0.81-0.12,1.62-0.29,2.43-0.43c0.3-0.05,0.6-0.08,0.94,0.08c-1.25,0.8-2.45,1.69-3.75,2.39
			c-1.49,0.8-2.39,2.04-3.12,3.49c-0.13,0.25-0.46,0.47-0.74,0.56c-0.87,0.28-1.77,0.46-2.64,0.72c-1.41,0.41-2.13,1.41-2.31,2.83
			C81.14,58.26,81.1,58.7,81.04,59.21z"/>
		<path class="st0" d="M58.33,85.44c-0.39-0.98-0.88-1.87-1.1-2.82c-0.42-1.76-1.75-2.37-3.24-2.69c-1.19-0.26-2.44-0.27-3.72-0.39
			c0-0.45,0.04-1.03-0.01-1.6c-0.11-1.18-0.69-2.1-1.79-2.54c-1.02-0.41-2.11-0.67-3.17-1.02c-0.26-0.09-0.49-0.26-0.75-0.59
			c1.3,0.17,1.59-0.76,2.01-1.52c0.67-1.22,1.31-2.46,2.04-3.65c0.17-0.29,0.61-0.57,0.94-0.58c1.06-0.06,2.13-0.01,3.2,0.04
			c0.62,0.03,0.82,0.57,0.45,1.26c-0.63,1.18-1.29,2.33-1.93,3.5c-0.54,1-0.34,1.35,0.8,1.36c1.16,0.01,2.32,0,3.48,0.01
			c0.26,0,0.54,0.02,0.79,0.09c0.4,0.12,0.93,0.54,1.15,0.41c0.54-0.32,0.96-0.85,1.36-1.35c0.25-0.31,0.4-0.7,0.63-1.13
			c0.32,0.38,0.56,0.68,0.81,0.97c0.01-0.08,0.01-0.16,0.02-0.25c0.85,0.04,1.7,0.16,2.54,0.1c0.46-0.04,0.9-0.39,1.2-0.53
			c0.2,1,0.43,2.08,0.66,3.22c0.96-0.44,1.75-0.84,2.57-1.15c0.54-0.2,1.14-0.35,1.71-0.36c2.47-0.04,4.94,0.09,7.4-0.05
			c2.02-0.11,3.92-0.72,5.08-2.6c0.39-0.63,0.83-0.51,1.42-0.26c-0.28,0.53-0.52,1.06-0.83,1.56c-0.41,0.66-0.59,1.22,0.27,1.4
			c-1.09,0.99-2.19,2-3.32,2.97c-0.19,0.17-0.52,0.22-0.8,0.23c-1.54,0.06-3.14-0.13-4.61,0.22c-0.88,0.21-1.63,1.18-2.32,1.92
			c-0.45,0.48-0.67,1.15-1.04,1.81c-0.34-0.14-0.73-0.23-1.03-0.44c-1.43-0.97-2.92-0.69-4.49-0.42
			C61.71,81.04,60.28,83.47,58.33,85.44z"/>
		<path class="st2" d="M74.22,66.84c3.12,0,6.19,0,9.45,0c-1.23,1.97-1.97,4.15-3.75,5.63c-0.48,0.4-1.23,0.65-1.86,0.66
			c-3.51,0.06-7.02,0.04-10.53,0.01c-0.43,0-0.86-0.26-1.28-0.4c0.13-0.38,0.26-0.75,0.4-1.13c0.33-0.87,0.95-1.09,1.87-1.06
			c2.38,0.06,4.76-0.03,7.13,0.01c0.82,0.02,1.37-0.15,1.57-1.07c-3.1,0-6.2,0-9.57,0c1.15-1.84,2.14-3.55,3.27-5.16
			c0.63-0.91,1.62-1.28,2.8-1.27c3.36,0.05,6.72,0,10.08,0.04c0.46,0,0.91,0.27,1.37,0.42c-0.15,0.4-0.28,0.8-0.44,1.19
			c-0.33,0.78-0.9,1-1.76,0.98c-2.41-0.06-4.82,0.04-7.22-0.02C74.88,65.64,74.42,65.91,74.22,66.84z"/>
		<path class="st0" d="M51.06,63.04c-0.94,1.7-1.82,3.3-2.7,4.9c-0.84,1.53-1.7,3.06-2.51,4.6c-0.23,0.44-0.49,0.63-1.03,0.63
			c-3.12-0.03-6.24-0.01-9.36-0.02c-1.37,0-2.05-1.06-1.39-2.29c1.34-2.51,2.75-4.98,4.15-7.45c0.09-0.17,0.34-0.35,0.52-0.35
			c1.95-0.03,3.9-0.02,6.03-0.02c-1.31,2.43-2.55,4.74-3.8,7.06c0.93,0.32,1.44,0.04,1.87-0.79c0.98-1.89,2.09-3.72,3.09-5.6
			c0.28-0.53,0.6-0.7,1.18-0.68C48.38,63.07,49.65,63.04,51.06,63.04z"/>
		<path class="st2" d="M76.86,41.76c-3.05,0.9-3.51,2.85-2.1,5.64c-2.73-0.79-4.93-0.45-6.56,1.8c-1.9-1.04-3.58-0.55-5.15,0.72
			c-0.17,0.13-0.46,0.28-0.62,0.22c-1.64-0.67-3.1,0.06-4.6,0.53c-0.57,0.18-1.15,0.35-1.72,0.52c-0.05-0.08-0.11-0.15-0.16-0.23
			c0.11-0.2,0.19-0.43,0.35-0.58c1.85-1.7,3.72-3.39,5.59-5.06c0.15-0.13,0.41-0.2,0.61-0.19c1.45,0.04,2.89,0.14,4.34,0.17
			c0.42,0.01,0.84-0.15,1.33-0.25c-0.23-0.58-0.4-1.03-0.55-1.41c0.44,0.11,1.68-1.07,1.78-1.91c0.66,0.2,1.33,0.41,2.17,0.67
			c0.2-1.08,0.42-2.05,0.55-3.03c0.09-0.64,0.11-1.3,0.05-1.95c-0.08-0.84,0.3-1.24,1.02-1.6c1.4-0.7,2.73-1.53,4.09-2.3
			c0.3-0.17,0.63-0.3,1.19-0.56c-0.19,0.59-0.26,1.03-0.46,1.39c-0.5,0.91-0.77,1.81-0.34,2.84c0.07,0.18-0.15,0.48-0.23,0.72
			c-0.01,0.02-0.05,0.03-0.07,0.05C75.61,39.52,75.46,39.72,76.86,41.76z"/>
		<path class="st3" d="M24.42,73.18c-1.07,0-2.14,0.01-3.21,0c-1.41-0.02-2.44-1.59-1.79-2.84c1.08-2.11,2.23-4.18,3.38-6.25
			c0.4-0.73,1.07-1.06,1.92-1.05c2.23,0.02,4.46,0.01,6.69,0.01c1.44,0,2.22,0.98,1.86,2.38c-0.1,0.39-0.3,0.77-0.5,1.13
			c-0.92,1.69-1.89,3.36-2.78,5.06c-0.59,1.13-1.42,1.67-2.71,1.58C26.33,73.13,25.37,73.18,24.42,73.18z M28.26,65.54
			c-0.69,0.17-1.42,0.12-1.61,0.42c-0.83,1.3-1.52,2.7-2.25,4.06c0.05,0.08,0.1,0.15,0.15,0.23c0.48-0.17,1.19-0.19,1.41-0.53
			C26.77,68.46,27.42,67.1,28.26,65.54z"/>
		<path class="st4" d="M52.98,73.15c1.15-2.08,2.2-4,3.34-6.06c-1.28,0-2.44,0-3.82,0c0.78-1.4,1.46-2.63,2.16-3.84
			c0.07-0.11,0.31-0.18,0.47-0.18c4.18-0.01,8.37-0.01,12.71-0.01c-0.73,1.32-1.39,2.54-2.09,3.73c-0.1,0.17-0.44,0.26-0.68,0.27
			c-0.83,0.04-1.67,0.11-2.49,0.02c-0.73-0.07-1.05,0.26-1.35,0.84c-0.81,1.55-1.69,3.06-2.51,4.61c-0.24,0.44-0.49,0.65-1.02,0.63
			C56.17,73.13,54.66,73.15,52.98,73.15z"/>
		<path class="st3" d="M83.77,73.15c1.5-2.72,3.06-5.24,4.3-7.92c0.83-1.78,1.88-2.55,3.83-2.24c0.92,0.15,1.88,0.03,2.97,0.03
			c-0.94,1.7-1.82,3.3-2.7,4.89c-0.85,1.53-1.72,3.04-2.54,4.58c-0.25,0.48-0.53,0.68-1.09,0.67C87,73.13,85.46,73.15,83.77,73.15z"
			/>
		<path class="st5" d="M96.95,65.51c0.44,0.89,0.78,1.86,1.34,2.66c1.08,1.54,2.28,2.98,3.44,4.46c0.14,0.18,0.29,0.35,0.43,0.53
			c-2.4,0-4.8-0.01-7.2-0.01c-0.98,0-1.4-0.47-1.21-1.44c0.08-0.43,0.26-0.85,0.47-1.23C95.12,68.82,96.04,67.17,96.95,65.51z"/>
		<path class="st6" d="M90.49,60.88c1.67,0,3.34,0.01,5.01,0.01c-0.53,0.9-1.25,1.33-2.35,1.22c-1.03-0.1-2.07-0.02-3.24-0.02
			C90.12,61.64,90.3,61.26,90.49,60.88z"/>
		<path class="st9" d="M128.63,63.04c-0.42,2.35-1.22,4.54-2.9,6.31c-2.21,0-4.43,0-6.81,0c0.54-0.95,0.99-1.74,1.46-2.58
			c0.75,0,1.53-0.07,2.29,0.02c0.95,0.12,1.31-0.36,1.52-1.22c-1.3,0-2.53-0.01-3.77,0.01c-0.18,0-0.43,0.1-0.51,0.23
			c-0.89,1.54-1.75,3.1-2.67,4.74c2.61,0,5.07,0,7.53,0c-1.07,0.89-2.14,1.77-3.21,2.66c-2.49-0.04-4.98-0.09-7.47-0.13
			c0-2.09,0-4.18,0-6.27c0.44-0.76,0.92-1.51,1.31-2.3c0.52-1.05,1.33-1.49,2.49-1.48C121.47,63.05,125.05,63.04,128.63,63.04z"/>
		<path class="st9" d="M108.41,60.89c1.34,0,2.69,0,4.11,0c0,0.75,0,1.51,0,2.26c-1.48,2.69-3.03,5.34-4.4,8.08
			c-0.68,1.36-1.43,2.29-3.09,1.97c-1.71-0.76-2.96-2.07-4.07-3.5c-1.41-1.82-2.49-3.82-2.87-6.13c0.29-0.17,0.59-0.49,0.88-0.5
			c1.93-0.05,3.87-0.02,5.8-0.02c0.49,0,0.97,0,1.6,0c-0.31,0.52-0.58,0.85-0.71,1.23c-0.58,1.66-1.73,2.26-3.41,1.92
			c-0.92-0.18-1.36,0.27-1.53,1.17c1.27,0,2.52,0.02,3.76-0.02c0.23-0.01,0.54-0.23,0.65-0.44
			C106.24,64.91,107.32,62.89,108.41,60.89z"/>
	</g>
</g>
</svg>
